<svg width="43" height="42" viewBox="0 0 43 42" fill="none" xmlns="http://www.w3.org/2000/svg">
<rect width="43" height="42" rx="21" fill="white"/>
<path d="M15.05 8.03775C15.3797 7.45805 15.8622 6.97501 16.4473 6.6387C17.0325 6.30238 17.6991 6.12502 18.378 6.125H24.622C25.3009 6.12502 25.9675 6.30238 26.5527 6.6387C27.1378 6.97501 27.6203 7.45805 27.95 8.03775L29.102 10.0625H32.474C33.8401 10.0625 35.1503 10.5926 36.1163 11.5361C37.0823 12.4797 37.625 13.7594 37.625 15.0938V21.0385C35.7535 19.8675 33.5768 19.2467 31.3542 19.25C30.2962 19.25 29.2705 19.3882 28.2958 19.6464C27.8978 18.49 27.1974 17.4554 26.2639 16.6449C25.3304 15.8345 24.1963 15.2763 22.9739 15.0259C21.7516 14.7755 20.4834 14.8414 19.2952 15.2171C18.107 15.5929 17.0399 16.2654 16.1998 17.1681C15.3596 18.0708 14.7756 19.1722 14.5055 20.3633C14.2355 21.5543 14.2888 22.7936 14.6602 23.9584C15.0316 25.1231 15.7082 26.1728 16.6229 27.0034C17.5376 27.8341 18.6586 28.4168 19.875 28.6939C19.5037 30.8207 19.7552 33.0067 20.6006 35H10.526C9.1599 35 7.84971 34.4699 6.88371 33.5264C5.9177 32.5828 5.375 31.3031 5.375 29.9688V15.0938C5.375 13.7594 5.9177 12.4797 6.88371 11.5361C7.84971 10.5926 9.1599 10.0625 10.526 10.0625H13.898L15.05 8.03775ZM21.5 17.0625C20.2821 17.0608 19.1068 17.4998 18.2007 18.2947C17.2947 19.0895 16.7221 20.184 16.5936 21.3669C16.465 22.5498 16.7895 23.7373 17.5045 24.7003C18.2194 25.6633 19.2742 26.3335 20.4653 26.5816C21.5145 23.8968 23.5619 21.6974 26.1986 20.4225C25.8822 19.4477 25.2563 18.5966 24.4115 17.9924C23.5667 17.3883 22.547 17.0626 21.5 17.0625ZM31.3542 40.25C36.7964 40.25 41.2083 35.9406 41.2083 30.625C41.2083 25.3094 36.7964 21 31.3542 21C25.912 21 21.5 25.3094 21.5 30.625C21.5 35.9406 25.912 40.25 31.3542 40.25ZM31.3542 24.5C31.5918 24.5 31.8196 24.5922 31.9876 24.7563C32.1556 24.9204 32.25 25.1429 32.25 25.375V29.75H36.7292C36.9668 29.75 37.1946 29.8422 37.3626 30.0063C37.5306 30.1704 37.625 30.3929 37.625 30.625C37.625 30.8571 37.5306 31.0796 37.3626 31.2437C37.1946 31.4078 36.9668 31.5 36.7292 31.5H32.25V35.875C32.25 36.1071 32.1556 36.3296 31.9876 36.4937C31.8196 36.6578 31.5918 36.75 31.3542 36.75C31.1166 36.75 30.8887 36.6578 30.7207 36.4937C30.5527 36.3296 30.4583 36.1071 30.4583 35.875V31.5H25.9792C25.7416 31.5 25.5137 31.4078 25.3457 31.2437C25.1777 31.0796 25.0833 30.8571 25.0833 30.625C25.0833 30.3929 25.1777 30.1704 25.3457 30.0063C25.5137 29.8422 25.7416 29.75 25.9792 29.75H30.4583V25.375C30.4583 25.1429 30.5527 24.9204 30.7207 24.7563C30.8887 24.5922 31.1166 24.5 31.3542 24.5Z" fill="#A5A5A5"/>
</svg>
